<svg width="51" height="50" viewBox="0 0 51 50" fill="none" xmlns="http://www.w3.org/2000/svg">
<path d="M49.7616 24.8201C48.6975 24.2813 47.7262 23.4533 46.9077 22.3871C45.0371 19.574 43.4577 16.4299 42.2129 13.0413L47.0504 2.82649C47.1668 2.59323 47.2397 2.32518 47.2626 2.0454C47.2856 1.76562 47.258 1.48248 47.1822 1.22033C47.1064 0.958182 46.9846 0.724878 46.8274 0.540484C46.6703 0.356089 46.4823 0.226124 46.2798 0.161768C43.7917 -0.28432 41.2607 0.196359 38.9594 1.55206C37.3315 2.51787 35.8247 3.82078 34.493 5.41397C31.9387 3.71512 29.1873 2.62428 26.3593 2.18927C16.6559 0.972771 7.33782 9.43036 6.29613 21.2092L6.09636 21.074C5.59686 20.7758 5.14864 20.3402 4.78016 19.7951C4.41168 19.2499 4.13099 18.607 3.9559 17.9073C3.84186 17.4144 3.80205 16.8955 3.83882 16.3814C3.87558 15.8673 3.98818 15.3684 4.16995 14.9143C4.33069 14.5322 4.56174 14.2129 4.84062 13.9874C5.01396 13.8454 5.16493 13.6586 5.28492 13.4376C5.4049 13.2167 5.49155 12.9659 5.53991 12.6997C5.58828 12.4334 5.59741 12.1568 5.56679 11.8858C5.53618 11.6147 5.46641 11.3545 5.36147 11.1199C5.25653 10.8854 5.11847 10.6811 4.95519 10.5187C4.7919 10.3564 4.60658 10.2391 4.40981 10.1737C4.21304 10.1082 4.00867 10.0959 3.80837 10.1373C3.60807 10.1787 3.41576 10.2731 3.24242 10.4152C2.51349 11.0017 1.9089 11.8331 1.48725 12.8288C1.10183 13.7752 0.861466 14.8171 0.780553 15.892C0.699641 16.967 0.779838 18.0531 1.01635 19.0851C1.30483 20.3371 1.77879 21.4965 2.40931 22.4925C3.03982 23.4884 3.81368 24.3001 4.68366 24.878L6.11063 25.9207C6.33872 30.8342 7.3101 35.632 8.96456 40.0167C10.1051 43.3262 11.5429 46.4328 13.2455 49.266C13.3813 49.4987 13.555 49.686 13.753 49.8132C13.9509 49.9405 14.1679 50.0043 14.387 49.9998H19.5384C19.6564 49.9799 19.7691 49.9219 19.867 49.8307C19.965 49.7395 20.0453 49.6179 20.1013 49.4759C20.1572 49.334 20.1871 49.1759 20.1885 49.015C20.1899 48.8542 20.1627 48.6952 20.1092 48.5516L19.7953 47.0454C19.6071 46.2983 19.4499 45.5376 19.3244 44.7669C20.6229 45.0758 22.2925 45.3655 23.4198 45.5006C24.9016 45.657 26.3901 45.657 27.8719 45.5006C28.4284 46.8523 28.9992 48.0688 29.5129 49.0729C29.6343 49.3164 29.7979 49.5159 29.9894 49.6539C30.181 49.7919 30.3947 49.8643 30.6117 49.8646H35.0496C35.1948 49.8621 35.3376 49.8134 35.4664 49.7225C35.5952 49.6316 35.7064 49.5011 35.7911 49.3414C35.8758 49.1817 35.9315 48.9973 35.9539 48.8031C35.9763 48.6089 35.9647 48.4103 35.92 48.2233C35.5918 46.7944 35.1637 44.8441 34.9069 43.6469C36.7925 42.8347 38.5914 41.6922 40.258 40.2484C40.4863 40.036 40.7146 39.7464 40.9429 39.4954C39.7491 39.0016 38.5928 38.355 37.4897 37.5644C37.221 37.3749 37.0189 37.0488 36.9279 36.6577C36.8369 36.2666 36.8645 35.8426 37.0045 35.479C37.1445 35.1154 37.3856 34.8419 37.6746 34.7188C37.9636 34.5957 38.2769 34.633 38.5456 34.8224C39.9742 35.8241 41.5028 36.5396 43.0834 36.9465C44.3491 37.1978 45.6304 37.2755 46.9077 37.1782C47.1911 37.1626 47.4647 37.033 47.6934 36.806C47.9222 36.579 48.0957 36.2649 48.1919 35.9038L50.6606 27.3303C50.7277 27.086 50.7576 26.8259 50.7484 26.5655C50.7392 26.3052 50.6912 26.05 50.6072 25.8155C50.5232 25.5809 50.4049 25.3718 50.2596 25.2008C50.1143 25.0297 49.9449 24.9002 49.7616 24.8201ZM19.4956 10.7627C19.3583 10.8291 19.2133 10.8618 19.0675 10.8593C18.787 10.8533 18.5167 10.7159 18.3026 10.4705C18.0886 10.2251 17.944 9.88693 17.8935 9.5135C17.843 9.14008 17.8898 8.75451 18.0258 8.42248C18.1618 8.09045 18.3786 7.83248 18.6394 7.6925C21.689 6.15854 24.992 5.79108 28.1858 6.63047C28.3503 6.65635 28.5092 6.72755 28.6526 6.83966C28.796 6.95178 28.9209 7.10245 29.0196 7.28239C29.1184 7.46232 29.1888 7.66771 29.2266 7.88589C29.2645 8.10408 29.2689 8.33043 29.2396 8.55101C29.2103 8.77159 29.148 8.98171 29.0564 9.16844C28.9648 9.35516 28.8459 9.51453 28.7071 9.63671C28.5682 9.7589 28.4124 9.84132 28.2491 9.87889C28.0858 9.91646 27.9186 9.90839 27.7577 9.85517C24.9943 9.12595 22.1359 9.43994 19.4956 10.7627ZM37.3612 22.5802C36.9548 22.5802 36.5576 22.4171 36.2196 22.1116C35.8817 21.806 35.6184 21.3718 35.4628 20.8637C35.3073 20.3556 35.2666 19.7965 35.3459 19.2571C35.4252 18.7178 35.6209 18.2223 35.9083 17.8334C36.1956 17.4446 36.5618 17.1797 36.9604 17.0725C37.359 16.9652 37.7721 17.0202 38.1476 17.2307C38.5231 17.4411 38.844 17.7975 39.0698 18.2548C39.2956 18.7121 39.4161 19.2497 39.4161 19.7996C39.418 20.1648 39.3667 20.5268 39.2651 20.8652C39.1636 21.2035 39.0138 21.5114 38.8243 21.7714C38.6349 22.0314 38.4094 22.2384 38.1608 22.3805C37.9122 22.5225 37.6454 22.597 37.3755 22.5995L37.3612 22.5802Z" fill="#F7A832"/>
</svg>
