<svg width="31" height="30" viewBox="0 0 31 30" fill="none" xmlns="http://www.w3.org/2000/svg">
<path d="M29.646 6.08203L26.4867 0.767578C26.2055 0.292969 25.7037 0 25.1689 0H5.49594C4.96111 0 4.45936 0.292969 4.17816 0.767578L1.01328 6.08203C-0.618777 8.82422 0.825818 12.6387 3.87491 13.0781C4.09545 13.1074 4.32152 13.125 4.54207 13.125C5.98115 13.125 7.26033 12.457 8.13701 11.4258C9.01369 12.457 10.2929 13.125 11.732 13.125C13.171 13.125 14.4502 12.457 15.3269 11.4258C16.2036 12.457 17.4828 13.125 18.9219 13.125C20.3664 13.125 21.6401 12.457 22.5168 11.4258C23.399 12.457 24.6727 13.125 26.1117 13.125C26.3378 13.125 26.5584 13.1074 26.7789 13.0781C29.839 12.6445 31.2891 8.83008 29.6516 6.08203H29.646ZM27.005 14.9355H26.9995C26.7072 14.9766 26.4095 15 26.1062 15C25.4225 15 24.7664 14.8887 24.1544 14.6895V22.5H6.51046V14.6836C5.89293 14.8887 5.23128 15 4.54758 15C4.24433 15 3.94107 14.9766 3.64884 14.9355H3.64333C3.41727 14.9004 3.19672 14.8594 2.98168 14.8008V26.25C2.98168 28.3184 4.56412 30 6.51046 30H24.1544C26.1007 30 27.6832 28.3184 27.6832 26.25V14.8008C27.4626 14.8594 27.2421 14.9062 27.005 14.9355Z" fill="#7D5418"/>
</svg>
