<svg width="51" height="50" viewBox="0 0 51 50" fill="none" xmlns="http://www.w3.org/2000/svg">
<path fill-rule="evenodd" clip-rule="evenodd" d="M25.75 50C29.033 50 32.2839 49.3534 35.3171 48.097C38.3502 46.8406 41.1062 44.9991 43.4277 42.6777C45.7491 40.3562 47.5906 37.6002 48.847 34.5671C50.1034 31.5339 50.75 28.283 50.75 25C50.75 21.717 50.1034 18.4661 48.847 15.4329C47.5906 12.3998 45.7491 9.64379 43.4277 7.32233C41.1062 5.00086 38.3502 3.15938 35.3171 1.90301C32.2839 0.646644 29.033 -4.89212e-08 25.75 0C19.1196 9.88008e-08 12.7607 2.63392 8.07233 7.32233C3.38392 12.0107 0.75 18.3696 0.75 25C0.75 31.6304 3.38392 37.9893 8.07233 42.6777C12.7607 47.3661 19.1196 50 25.75 50ZM25.1056 35.1111L38.9944 18.4444L34.7278 14.8889L22.7833 29.2194L16.6028 23.0361L12.675 26.9639L21.0083 35.2972L23.1583 37.4472L25.1056 35.1111Z" fill="#126D29"/>
</svg>
