<svg width="51" height="44" viewBox="0 0 51 44" fill="none" xmlns="http://www.w3.org/2000/svg">
<path d="M15.7524 34.5H30.7524C34.893 34.5 38.2524 30.3008 38.2524 25.125H40.7524C46.268 25.125 50.7524 19.5195 50.7524 12.625C50.7524 5.73047 46.268 0.125 40.7524 0.125H10.1274C9.08835 0.125 8.25242 1.16992 8.25242 2.46875V25.125C8.25242 30.3008 11.6118 34.5 15.7524 34.5ZM40.7524 6.375C43.5102 6.375 45.7524 9.17773 45.7524 12.625C45.7524 16.0723 43.5102 18.875 40.7524 18.875H38.2524V6.375H40.7524ZM44.479 43.875H4.52585C0.807103 43.875 -0.239772 37.625 1.71335 37.625H47.2837C49.2368 37.625 48.2055 43.875 44.479 43.875Z" fill="#7D5418"/>
</svg>
