<svg width="21" height="19" viewBox="0 0 21 19" fill="none" xmlns="http://www.w3.org/2000/svg">
<path d="M18.917 4.5H15.167C15.167 3.30653 14.6929 2.16193 13.849 1.31802C13.0051 0.474106 11.8605 0 10.667 0C9.47352 0 8.32893 0.474106 7.48501 1.31802C6.6411 2.16193 6.16699 3.30653 6.16699 4.5H2.41699C2.01917 4.5 1.63764 4.65804 1.35633 4.93934C1.07503 5.22064 0.916992 5.60218 0.916992 6V17.25C0.916992 17.6478 1.07503 18.0294 1.35633 18.3107C1.63764 18.592 2.01917 18.75 2.41699 18.75H18.917C19.3148 18.75 19.6963 18.592 19.9777 18.3107C20.259 18.0294 20.417 17.6478 20.417 17.25V6C20.417 5.60218 20.259 5.22064 19.9777 4.93934C19.6963 4.65804 19.3148 4.5 18.917 4.5ZM7.66699 8.25C7.66699 8.44891 7.58797 8.63968 7.44732 8.78033C7.30667 8.92098 7.1159 9 6.91699 9C6.71808 9 6.52731 8.92098 6.38666 8.78033C6.24601 8.63968 6.16699 8.44891 6.16699 8.25V6.75C6.16699 6.55109 6.24601 6.36032 6.38666 6.21967C6.52731 6.07902 6.71808 6 6.91699 6C7.1159 6 7.30667 6.07902 7.44732 6.21967C7.58797 6.36032 7.66699 6.55109 7.66699 6.75V8.25ZM10.667 1.5C11.4626 1.5 12.2257 1.81607 12.7883 2.37868C13.3509 2.94129 13.667 3.70435 13.667 4.5H7.66699C7.66699 3.70435 7.98306 2.94129 8.54567 2.37868C9.10828 1.81607 9.87134 1.5 10.667 1.5ZM15.167 8.25C15.167 8.44891 15.088 8.63968 14.9473 8.78033C14.8067 8.92098 14.6159 9 14.417 9C14.2181 9 14.0273 8.92098 13.8867 8.78033C13.746 8.63968 13.667 8.44891 13.667 8.25V6.75C13.667 6.55109 13.746 6.36032 13.8867 6.21967C14.0273 6.07902 14.2181 6 14.417 6C14.6159 6 14.8067 6.07902 14.9473 6.21967C15.088 6.36032 15.167 6.55109 15.167 6.75V8.25Z" fill="#7D5418"/>
</svg>
