<svg width="12" height="12" viewBox="0 0 12 12" fill="none" xmlns="http://www.w3.org/2000/svg">
<path d="M6 0C6.79565 0 7.55871 0.31607 8.12132 0.87868C8.68393 1.44129 9 2.20435 9 3C9 3.79565 8.68393 4.55871 8.12132 5.12132C7.55871 5.68393 6.79565 6 6 6C5.20435 6 4.44129 5.68393 3.87868 5.12132C3.31607 4.55871 3 3.79565 3 3C3 2.20435 3.31607 1.44129 3.87868 0.87868C4.44129 0.31607 5.20435 0 6 0ZM6 1.5C5.60218 1.5 5.22064 1.65804 4.93934 1.93934C4.65804 2.22064 4.5 2.60218 4.5 3C4.5 3.39782 4.65804 3.77936 4.93934 4.06066C5.22064 4.34196 5.60218 4.5 6 4.5C6.39782 4.5 6.77936 4.34196 7.06066 4.06066C7.34196 3.77936 7.5 3.39782 7.5 3C7.5 2.60218 7.34196 2.22064 7.06066 1.93934C6.77936 1.65804 6.39782 1.5 6 1.5ZM6 6.75C8.0025 6.75 12 7.7475 12 9.75V12H0V9.75C0 7.7475 3.9975 6.75 6 6.75ZM6 8.175C3.7725 8.175 1.425 9.27 1.425 9.75V10.575H10.575V9.75C10.575 9.27 8.2275 8.175 6 8.175Z" fill="#307BBF"/>
</svg>
